<?xml version="1.0" standalone="no"?>
<!DOCTYPE svg PUBLIC "-//W3C//DTD SVG 20010904//EN"
 "http://www.w3.org/TR/2001/REC-SVG-20010904/DTD/svg10.dtd">
<svg version="1.0" xmlns="http://www.w3.org/2000/svg"
 width="1277.000000pt" height="195.000000pt" viewBox="0 0 1277.000000 195.000000"
 preserveAspectRatio="xMidYMid meet">

<g transform="translate(0.000000,195.000000) scale(0.100000,-0.100000)"
fill="#000000" stroke="none">
<path d="M140 1815 c0 -6 107 -236 270 -580 78 -165 177 -374 220 -465 159
-338 292 -615 299 -623 4 -4 143 -6 308 -5 l300 3 -64 145 c-35 80 -111 249
-168 375 -57 127 -156 347 -220 490 -64 143 -157 351 -207 463 l-92 202 -323
0 c-178 0 -323 -2 -323 -5z"/>
<path d="M1716 1768 c-13 -29 -48 -114 -79 -188 -31 -74 -106 -256 -168 -404
l-111 -270 30 -70 c187 -436 255 -592 261 -598 3 -4 65 129 136 295 71 166
169 394 218 507 49 113 108 252 132 310 24 58 77 183 119 278 42 95 76 177 76
183 0 5 -117 9 -296 9 l-295 0 -23 -52z"/>
<path d="M2435 1790 c-15 -29 -111 -253 -290 -675 -70 -165 -176 -412 -235
-550 -112 -257 -179 -419 -177 -421 1 -1 108 -4 239 -7 l236 -6 54 137 54 137
297 0 c163 0 297 4 297 8 0 4 -37 77 -82 161 l-81 153 -145 6 c-79 3 -146 8
-148 10 -3 3 26 85 64 183 39 99 87 225 107 282 21 56 41 102 44 102 3 0 43
-64 87 -143 85 -148 157 -272 330 -567 56 -96 139 -239 184 -317 l82 -143 285
0 286 0 -5 475 c-2 261 -3 475 -2 475 1 0 50 -82 109 -182 59 -101 151 -257
205 -348 54 -91 123 -210 155 -265 32 -55 65 -112 74 -127 l16 -28 276 0 276
0 6 518 c4 284 7 662 7 840 l0 322 -210 0 -210 0 0 -540 c0 -297 -4 -540 -8
-540 -5 0 -46 66 -92 148 -46 81 -123 215 -171 297 -89 153 -209 363 -308 539
l-56 98 -125 -6 c-69 -3 -169 -6 -222 -6 l-98 0 -2 -531 -3 -532 -111 174
c-61 96 -169 266 -241 379 -71 113 -171 272 -223 354 -52 81 -99 150 -105 152
-5 1 -99 4 -209 6 l-198 3 -13 -25z"/>
<path d="M5360 1601 c0 -190 2 -220 16 -225 9 -3 130 -6 270 -6 l254 0 0 -615
0 -615 260 0 260 0 0 163 c0 89 3 361 7 605 l6 442 254 0 253 0 0 235 0 235
-790 0 -790 0 0 -219z"/>
<path d="M7010 980 l0 -840 255 0 255 0 0 840 0 840 -255 0 -255 0 0 -840z"/>
<path d="M7610 980 l0 -840 620 0 620 0 0 213 0 214 -167 6 c-91 4 -271 7
-400 7 l-233 0 0 105 0 105 290 0 290 0 0 170 0 170 -290 0 -290 0 0 115 0
115 400 0 400 0 -2 228 -3 227 -617 3 -618 2 0 -840z"/>
<path d="M8960 1814 c0 -8 72 -142 180 -334 48 -85 194 -348 325 -585 131
-236 280 -506 333 -599 l95 -169 111 7 c61 3 184 6 274 6 l162 0 0 840 0 840
-210 0 -210 0 -2 -537 -3 -538 -231 405 c-127 223 -264 465 -305 537 l-74 132
-222 1 c-123 0 -223 -3 -223 -6z"/>
<path d="M9154 579 l-212 -434 211 -3 c115 -1 212 -1 214 1 2 2 2 199 1 437
l-3 433 -211 -434z"/>
<path d="M10913 780 c-92 -20 -149 -68 -167 -143 -15 -64 32 -141 110 -180 17
-9 71 -26 120 -38 122 -31 165 -78 115 -128 -51 -51 -152 -28 -179 41 -12 30
-19 37 -36 33 -12 -2 -52 -4 -90 -4 l-68 -1 6 -32 c12 -60 57 -121 110 -147
65 -33 216 -41 298 -17 101 29 158 100 158 196 0 61 -19 101 -62 133 -41 30
-68 40 -186 71 -100 27 -122 38 -122 66 0 52 101 70 145 25 14 -13 25 -31 25
-40 0 -14 12 -16 86 -14 47 2 88 7 91 12 8 14 -25 92 -50 115 -12 12 -40 28
-61 37 -45 19 -184 28 -243 15z"/>
<path d="M11350 710 l0 -70 105 0 106 0 -3 -240 -3 -240 98 0 97 0 0 240 0
240 100 0 100 0 0 70 0 70 -300 0 -300 0 0 -70z"/>
<path d="M12050 470 l0 -310 268 0 267 0 0 65 0 65 -172 0 -173 0 0 65 0 65
155 0 155 0 0 60 0 60 -155 0 -155 0 0 50 0 50 168 2 167 3 3 68 3 67 -266 0
-265 0 0 -310z"/>
</g>
</svg>
